<svg width="40" height="40" viewBox="0 0 40 40" fill="none" xmlns="http://www.w3.org/2000/svg">
<circle cx="20" cy="20" r="20" fill="#F3D8B9"/>
<path d="M22.6358 11.9095C23.2888 11.4741 23.6153 11.2564 23.9711 11.2917C24.3269 11.3269 24.6044 11.6044 25.1594 12.1594L27.8406 14.8406C28.3956 15.3956 28.6731 15.6731 28.7083 16.0289C28.7436 16.3847 28.5259 16.7112 28.0905 17.3642L26.4419 19.8372C25.88 20.68 25.5991 21.1013 25.3749 21.5511C25.2086 21.8845 25.0659 22.2292 24.9476 22.5825C24.7882 23.0591 24.6889 23.5557 24.4902 24.5489L24.2992 25.5038C24.2986 25.5072 24.2982 25.5089 24.298 25.5101C24.1556 26.213 23.3414 26.5419 22.7508 26.1351C22.7497 26.1344 22.7483 26.1334 22.7455 26.1315V26.1315C22.7322 26.1223 22.7255 26.1177 22.7189 26.1131C19.2692 23.7225 16.2775 20.7308 13.8869 17.2811C13.8823 17.2745 13.8777 17.2678 13.8685 17.2545V17.2545C13.8666 17.2517 13.8656 17.2503 13.8649 17.2492C13.4581 16.6586 13.787 15.8444 14.4899 15.702C14.4911 15.7018 14.4928 15.7014 14.4962 15.7008L15.4511 15.5098C16.4443 15.3111 16.9409 15.2118 17.4175 15.0524C17.7708 14.9341 18.1155 14.7914 18.4489 14.6251C18.8987 14.4009 19.32 14.12 20.1628 13.5581L22.6358 11.9095Z" stroke="#904F4F" stroke-width="2"/>
<path d="M13 27L17.5 22.5" stroke="#904F4F" stroke-width="2" stroke-linecap="round"/>
</svg>
