<svg width="40" height="40" viewBox="0 0 40 40" fill="none" xmlns="http://www.w3.org/2000/svg">
<circle cx="20" cy="20" r="20" fill="#E1F4BA"/>
<path d="M23.3 30H11.9C10.8507 30 10 29.1493 10 28.1V16.7H11.9V28.1H23.3V30ZM27.1 26.2H15.7C14.6507 26.2 13.8 25.3493 13.8 24.3V12.9C13.8 11.8507 14.6507 11 15.7 11H27.1C28.1493 11 29 11.8507 29 12.9V24.3C29 25.3493 28.1493 26.2 27.1 26.2ZM15.7 12.9V24.3H27.1V12.9H15.7ZM22.35 22.4H20.45V19.55H17.6V17.65H20.45V14.8H22.35V17.65H25.2V19.55H22.35V22.4Z" fill="#7B914F"/>
</svg>
