<svg width="25" height="25" viewBox="0 0 25 25" fill="none" xmlns="http://www.w3.org/2000/svg">
<path d="M19.2709 13.5417C20.8334 16.6667 20.5179 21.3233 12.5 21.3401C5.72921 21.3542 2.08337 16.9934 2.08337 13.5417C2.08337 10.0899 5.52669 7.79839 10.4167 7.79839C15.3067 7.79839 12.5 13.5417 19.2709 13.5417Z" fill="#3EC553"/>
<path d="M21.875 8.85416C21.875 10.8677 20.0095 12.5 17.7083 12.5C15.4071 12.5 13.5416 10.8677 13.5416 8.85416C13.5416 6.84062 15.4071 5.20833 17.7083 5.20833C20.0095 5.20833 21.875 6.84062 21.875 8.85416Z" fill="#FF6B00"/>
<path d="M14.9873 11.1901L14.082 11.6148L14.9873 11.1901ZM9.36483 20.8144L9.43919 21.8116L9.36483 20.8144ZM9.29047 19.8171C9.14663 19.8279 9.00115 19.8333 8.85421 19.8333V21.8333C9.05082 21.8333 9.2459 21.826 9.43919 21.8116L9.29047 19.8171ZM8.85421 19.8333C5.66706 19.8333 3.08337 17.2496 3.08337 14.0625H1.08337C1.08337 18.3542 4.56249 21.8333 8.85421 21.8333V19.8333ZM3.08337 14.0625C3.08337 10.8754 5.66706 8.29167 8.85421 8.29167V6.29167C4.56249 6.29167 1.08337 9.77079 1.08337 14.0625H3.08337ZM8.85421 8.29167C11.1646 8.29167 13.1599 9.64937 14.082 11.6148L15.8926 10.7654C14.6535 8.12412 11.9689 6.29167 8.85421 6.29167V8.29167ZM16.8334 13.5C18.4902 13.5 19.8334 14.8432 19.8334 16.5H21.8334C21.8334 13.7386 19.5948 11.5 16.8334 11.5V13.5ZM19.8334 16.5V16.8333H21.8334V16.5H19.8334ZM19.8334 16.8333C19.8334 18.4902 18.4902 19.8333 16.8334 19.8333V21.8333C19.5948 21.8333 21.8334 19.5948 21.8334 16.8333H19.8334ZM16.8334 19.8333H9.38453V21.8333H16.8334V19.8333ZM9.38453 19.8333C9.93156 19.8333 10.375 20.2768 10.375 20.8238H8.37504C8.37504 21.3814 8.82702 21.8333 9.38453 21.8333V19.8333ZM14.082 11.6148C14.5406 12.5923 15.5223 13.5 16.8334 13.5V11.5C16.5159 11.5 16.1258 11.2623 15.8926 10.7654L14.082 11.6148ZM9.43919 21.8116C8.86561 21.8544 8.37504 21.4008 8.37504 20.8238H10.375C10.375 20.2359 9.87507 19.7736 9.29047 19.8171L9.43919 21.8116Z" fill="black"/>
<path d="M18.7813 13.4011C19.5403 13.1989 20.2267 12.7861 20.7613 12.2105C21.2959 11.635 21.6569 10.92 21.8026 10.1481C21.9484 9.3762 21.8729 8.57883 21.585 7.84795C21.2972 7.11707 20.8085 6.48246 20.1755 6.01732C19.5425 5.55218 18.7909 5.27546 18.0074 5.21908C17.2239 5.16269 16.4404 5.32894 15.7473 5.69865C15.0542 6.06836 14.4797 6.62647 14.0901 7.30859C13.7006 7.99072 13.5117 8.76908 13.5455 9.55389" stroke="black" stroke-width="2"/>
</svg>
