<svg width="25" height="25" viewBox="0 0 25 25" fill="none" xmlns="http://www.w3.org/2000/svg">
<path d="M13.0208 13.4403C13.0208 18.0427 18.1593 20.3126 16.1458 20.3126C14.1323 20.3126 7.29163 17.1026 7.29163 12.5003C7.29163 7.89789 14.1323 4.16693 16.1458 4.16693C18.1593 4.16693 13.0208 8.83796 13.0208 13.4403Z" fill="#FFE70C"/>
<path d="M16.9323 19.3981L17.8326 18.9629L16.9323 19.3981ZM16.3766 20.7721L16.032 19.8333L16.3766 20.7721ZM16.0821 6.50937L15.3869 5.79057L16.0821 6.50937ZM16.9323 5.60188L17.8326 6.0371L16.9323 5.60188ZM16.3766 4.2279L16.032 5.16666L16.3766 4.2279ZM14.5416 12.5C14.5416 10.4305 15.3975 8.56269 16.7773 7.22817L15.3869 5.79057C13.6336 7.4863 12.5416 9.86649 12.5416 12.5H14.5416ZM16.7773 17.7718C15.3975 16.4373 14.5416 14.5695 14.5416 12.5H12.5416C12.5416 15.1335 13.6336 17.5137 15.3869 19.2094L16.7773 17.7718ZM15.625 19.8333C11.5749 19.8333 8.29163 16.5501 8.29163 12.5H6.29163C6.29163 17.6546 10.4703 21.8333 15.625 21.8333V19.8333ZM8.29163 12.5C8.29163 8.4499 11.5749 5.16666 15.625 5.16666V3.16666C10.4703 3.16666 6.29163 7.34533 6.29163 12.5H8.29163ZM15.3869 19.2094C15.6507 19.4645 15.8272 19.6355 15.9492 19.7629C16.009 19.8254 16.0423 19.8635 16.0596 19.885C16.0799 19.9103 16.059 19.8893 16.032 19.8333L17.8326 18.9629C17.7165 18.7227 17.5254 18.5171 17.3936 18.3795C17.2387 18.2178 17.0288 18.015 16.7773 17.7718L15.3869 19.2094ZM15.625 21.8333C15.9348 21.8333 16.347 21.8482 16.7211 21.7108L16.032 19.8333C16.0726 19.8184 16.087 19.8234 16.0198 19.8278C15.9412 19.8328 15.8326 19.8333 15.625 19.8333V21.8333ZM16.032 19.8333L16.7211 21.7108C17.8309 21.3035 18.3471 20.0272 17.8326 18.9629L16.032 19.8333ZM16.7773 7.22817C17.0288 6.98497 17.2387 6.78222 17.3936 6.62045C17.5254 6.48285 17.7165 6.27725 17.8326 6.0371L16.032 5.16666C16.059 5.11071 16.0799 5.08969 16.0596 5.11498C16.0423 5.13644 16.009 5.17461 15.9492 5.23707C15.8272 5.36446 15.6507 5.53545 15.3869 5.79057L16.7773 7.22817ZM15.625 5.16666C15.8326 5.16666 15.9412 5.16714 16.0198 5.17223C16.087 5.17657 16.0726 5.18157 16.032 5.16666L16.7211 3.28914C16.347 3.15181 15.9348 3.16666 15.625 3.16666V5.16666ZM17.8326 6.0371C18.3471 4.97278 17.8309 3.69649 16.7211 3.28914L16.032 5.16666L17.8326 6.0371Z" fill="black"/>
</svg>
