<svg width="22" height="22" viewBox="0 0 22 22" fill="none" xmlns="http://www.w3.org/2000/svg">
<path fill-rule="evenodd" clip-rule="evenodd" d="M14.4822 12.1513C14.6018 11.7892 14.6666 11.4021 14.6666 10.9999C14.6666 8.97487 13.025 7.33325 10.9999 7.33325C10.5977 7.33325 10.2107 7.39801 9.84857 7.51766L10.3924 8.06147C10.5886 8.02112 10.7918 7.99992 10.9999 7.99992C12.6568 7.99992 13.9999 9.34306 13.9999 10.9999C13.9999 11.2081 13.9787 11.4113 13.9384 11.6075L14.4822 12.1513ZM8.64439 9.14191C8.2408 9.65286 7.99992 10.2983 7.99992 10.9999C7.99992 12.6568 9.34306 13.9999 10.9999 13.9999C11.7016 13.9999 12.347 13.759 12.8579 13.3555L13.332 13.8295C12.6982 14.3525 11.8858 14.6666 10.9999 14.6666C8.97487 14.6666 7.33325 13.025 7.33325 10.9999C7.33325 10.1141 7.64738 9.30162 8.17032 8.66784L8.64439 9.14191Z" fill="#A7CBEA"/>
<path fill-rule="evenodd" clip-rule="evenodd" d="M16.6717 14.3409C17.6916 13.4616 18.4897 12.539 18.9777 11.9233L19.0176 11.8731C19.2338 11.6016 19.4333 11.351 19.4333 11.0001C19.4333 10.6492 19.2338 10.3986 19.0176 10.1271L18.9777 10.0769C18.3781 9.32043 17.3105 8.10058 15.9384 7.0672C14.5699 6.03646 12.8657 5.16675 11 5.16675C9.99264 5.16675 9.03239 5.42029 8.14662 5.81583L8.65447 6.32367C9.40127 6.01881 10.1891 5.83341 11 5.83341C12.6606 5.83341 14.2244 6.6109 15.5374 7.59972C16.8468 8.5859 17.8742 9.75799 18.4552 10.491C18.7357 10.8449 18.7667 10.9082 18.7667 11.0001C18.7667 11.092 18.7357 11.1552 18.4552 11.5092C17.9761 12.1137 17.1932 13.0169 16.199 13.8682L16.6717 14.3409ZM6.83345 7.33108C6.70778 7.41852 6.58413 7.50822 6.46263 7.59972C5.15322 8.58591 4.12576 9.75799 3.54481 10.491C3.26428 10.8449 3.23332 10.9082 3.23332 11.0001C3.23332 11.092 3.26428 11.1552 3.54481 11.5092C4.12576 12.2422 5.15322 13.4143 6.46263 14.4004C7.77556 15.3893 9.33938 16.1667 11 16.1667C12.2668 16.1667 13.4773 15.7143 14.5631 15.0607L15.0479 15.5455C13.8581 16.2862 12.4799 16.8334 11 16.8334C9.13428 16.8334 7.43014 15.9637 6.06156 14.933C4.68947 13.8996 3.62189 12.6797 3.02234 11.9233L2.98242 11.8731C2.7662 11.6016 2.56665 11.351 2.56665 11.0001C2.56665 10.6492 2.76619 10.3986 2.98242 10.1271L3.02234 10.0769C3.62189 9.32043 4.68947 8.10058 6.06156 7.0672C6.15772 6.99478 6.25553 6.92315 6.35494 6.85257L6.83345 7.33108Z" fill="#A7CBEA"/>
<path d="M4.125 2.75L18.7917 17.4167" stroke="#A7CBEA" stroke-width="0.666667"/>
</svg>
